# xmcd CD database file
#
# Track frame offsets:
#	150
#	10210
#	20371
#	31594
#	47523
#	60255
#	72833
#	87825
#	98707
#	114878
#	130836
#	142316
#	150744
#	161528
#
# Disc length: 2582 seconds
#
# Revision: 1
# Processed by: cddbd v1.5.1PL0 Copyright (c) Steve Scherf et al.
# Submitted via: CDex 1.51
#
DISCID=a30a140e
DTITLE=Stinchi di Santo - Stincofobia?
DYEAR=2004
DGENRE=Rock Demenziale
TTITLE0=Peter Punk
TTITLE1=Marina (God Save The Queen)
TTITLE2=Stinco Attacco
TTITLE3=Pippi (Jazz Club Version)
TTITLE4=Guerra
TTITLE5=Rambo
TTITLE6=Io Sono (Uno Stinco di Santo)
TTITLE7=I'am a Gugiol
TTITLE8=Cover (io odio)
TTITLE9=La Leopoldina
TTITLE10=Baiosi 2004
TTITLE11=Ma Dimmi Perchè
TTITLE12=Tutti Quanti Fanno Jazz
TTITLE13=Huligani Dangereux (omaggio ai cccp)
EXTD=YEAR: 2004
EXTT0=
EXTT1=
EXTT2=
EXTT3=
EXTT4=
EXTT5=
EXTT6=
EXTT7=
EXTT8=
EXTT9=
EXTT10=
EXTT11=
EXTT12=
EXTT13=
PLAYORDER=
